<svg width="69" height="54" viewBox="0 0 69 54" fill="none" xmlns="http://www.w3.org/2000/svg">
<path fill-rule="evenodd" clip-rule="evenodd" d="M65.1912 53.7067H3.8088C1.70913 53.7067 0 51.999 0 49.8979V30.6027C0 28.5031 1.70844 26.7939 3.8088 26.7939H65.1912C67.2916 26.7939 69 28.5031 69 30.6027V49.8986C69 51.999 67.2916 53.7067 65.1912 53.7067ZM3.80878 29.333C3.10843 29.333 2.53918 29.9029 2.53918 30.6026V49.8985C2.53918 50.5995 3.10843 51.1681 3.80878 51.1681H65.1912C65.8915 51.1681 66.4608 50.5995 66.4608 49.8985V30.6026C66.4608 29.9029 65.8915 29.333 65.1912 29.333H3.80878V29.333Z" fill="#777777"/>
<path fill-rule="evenodd" clip-rule="evenodd" d="M20.0666 28.9524C19.8444 28.9524 19.6202 28.8937 19.4159 28.7716C18.8142 28.4121 18.6183 27.6324 18.9785 27.0307L30.7347 7.38434C31.0949 6.78197 31.8753 6.58739 32.4762 6.94688C33.0779 7.30706 33.2739 8.08676 32.9137 8.68775L21.1568 28.3341C20.9187 28.7322 20.4978 28.9524 20.0666 28.9524Z" fill="#777777"/>
<path fill-rule="evenodd" clip-rule="evenodd" d="M48.9341 28.9525C48.5022 28.9525 48.0819 28.7324 47.8432 28.3343L36.1953 8.86939C35.8358 8.26771 36.0311 7.4887 36.6328 7.12852C37.2345 6.76903 38.0142 6.96361 38.3743 7.56598L50.0222 27.0309C50.3817 27.6326 50.1864 28.4123 49.5848 28.7717C49.3805 28.8939 49.1556 28.9525 48.9341 28.9525Z" fill="#777777"/>
<path fill-rule="evenodd" clip-rule="evenodd" d="M34.5 10.0622C31.7565 10.0622 29.5251 7.83073 29.5251 5.08798C29.5251 2.34523 31.7565 0.11377 34.5 0.11377C37.2427 0.11377 39.4742 2.34523 39.4742 5.08798C39.4742 7.83073 37.2427 10.0622 34.5 10.0622ZM34.5 2.65137C33.1572 2.65137 32.0643 3.74364 32.0643 5.08707C32.0643 6.4305 33.1572 7.52277 34.5 7.52277C35.8427 7.52277 36.935 6.4305 36.935 5.08707C36.935 3.74364 35.8427 2.65137 34.5 2.65137Z" fill="#777777"/>
<path fill-rule="evenodd" clip-rule="evenodd" d="M24.5598 40.3168C24.5598 42.3992 24.1879 43.9731 23.4441 45.0378C22.7003 46.1038 21.6197 46.6358 20.2039 46.6358C18.7818 46.6358 17.6923 46.1045 16.9367 45.0426C16.1812 43.9807 15.803 42.4054 15.803 40.3161C15.803 38.2447 16.1777 36.6764 16.9277 35.6076C17.6771 34.5394 18.7666 34.0054 20.1942 34.0054C21.6046 34.0054 22.6844 34.5367 23.4344 35.5993C24.1852 36.6619 24.5598 38.233 24.5598 40.3168ZM22.4443 40.3216C22.4443 38.8733 22.2759 37.7348 21.9399 36.9041C21.6039 36.0733 21.016 35.6572 20.1769 35.6572C19.3379 35.6572 18.7521 36.074 18.4188 36.9082C18.0856 37.741 17.9193 38.8795 17.9193 40.3209C17.9193 41.7382 18.0828 42.8698 18.4099 43.7151C18.7369 44.5617 19.3351 44.9847 20.2039 44.9847C21.0194 44.9847 21.5963 44.5748 21.9358 43.7571C22.2745 42.9381 22.4443 41.792 22.4443 40.3216Z" fill="#777777"/>
<path fill-rule="evenodd" clip-rule="evenodd" d="M26.4877 34.229H29.5051C30.469 34.229 31.2515 34.3194 31.8525 34.5016C32.4535 34.683 32.9592 35.0846 33.3698 35.7063C33.7803 36.3273 33.986 37.0766 33.986 37.9509C33.986 38.7547 33.819 39.4447 33.4857 40.0216C33.1524 40.5991 32.7046 41.0152 32.1423 41.2718C31.5799 41.5271 30.7154 41.6555 29.5493 41.6555H28.5053V46.413H26.4877V34.229V34.229ZM28.5053 35.7912V40.0395H29.5051C30.3973 40.0395 31.0148 39.8732 31.3571 39.5392C31.6993 39.206 31.8704 38.6643 31.8704 37.915C31.8704 37.3554 31.7573 36.9021 31.5309 36.5536C31.3046 36.2059 31.0562 35.992 30.7857 35.9105C30.5146 35.8312 30.0882 35.7905 29.5051 35.7905H28.5053V35.7912Z" fill="#777777"/>
<path fill-rule="evenodd" clip-rule="evenodd" d="M35.5212 34.229H42.5005V35.8443H37.538V39.3253H41.4303V40.9496H37.538V44.7605H42.5813V46.4116H35.5212V34.229Z" fill="#777777"/>
<path fill-rule="evenodd" clip-rule="evenodd" d="M43.8668 34.229H46.2424L50.2486 43.012V34.229H51.9356V46.4116H50.0526L45.5538 36.6557V46.4116H43.8668V34.229H43.8668Z" fill="#777777"/>
</svg>
