<svg width="62" height="42" viewBox="0 0 62 42" fill="none" xmlns="http://www.w3.org/2000/svg">
<path fill-rule="evenodd" clip-rule="evenodd" d="M2.06667 0.249512C0.945569 0.249512 0 1.19505 0 2.31618V39.5162C0 40.6373 0.945569 41.5829 2.06667 41.5829H59.9333C61.0544 41.5829 62 40.6373 62 39.5162V2.31618C62 1.19505 61.0544 0.249512 59.9333 0.249512H2.06667ZM4.84372 3.00488H57.1563L31 27.2882L4.84372 3.00488ZM2.75556 4.83493L19.3319 20.2058L2.75556 36.7821V4.83493ZM59.2444 4.83493V36.7821L42.6681 20.2058L59.2444 4.83493ZM21.3556 22.0787L30.0528 30.1732C30.5841 30.6761 31.4159 30.6761 31.9472 30.1732L40.6444 22.0787L57.3931 38.8273H4.60694L21.3556 22.0787Z" fill="#777777"/>
</svg>
