<svg width="54" height="54" viewBox="0 0 54 54" fill="none" xmlns="http://www.w3.org/2000/svg">
<path fill-rule="evenodd" clip-rule="evenodd" d="M48.78 47.4002C51.06 45.0602 51.06 41.9402 48.78 39.6602L42.54 33.4202C41.46 32.2802 40.14 31.6802 38.7 31.6802C37.32 31.6802 36 32.2802 34.86 33.4202L31.26 37.0202C30.96 36.8402 30.66 36.7202 30.36 36.5402C29.94 36.3602 29.58 36.1202 29.22 35.9402C25.86 33.8402 22.8 31.0202 19.92 27.4802C18.48 25.6802 17.52 24.1802 16.86 22.6202C17.76 21.7802 18.66 20.8802 19.5 20.0402C19.8 19.7402 20.16 19.3802 20.46 19.0802C21.6 17.9402 22.26 16.5602 22.26 15.1802C22.26 13.8002 21.66 12.4802 20.46 11.2802L17.4 8.16024C17.04 7.80024 16.68 7.44024 16.38 7.08024C15.72 6.36024 15 5.64024 14.28 4.98024C13.2 3.90024 11.88 3.30024 10.5 3.30024C9.12001 3.30024 7.80001 3.90024 6.66001 4.98024L2.76001 8.88024C1.32001 10.3202 0.480008 12.0602 0.300008 14.1002C0.0600084 17.4002 1.02001 20.4602 1.74001 22.5002C3.54001 27.4202 6.30001 32.0402 10.38 36.9602C15.36 42.9002 21.3 47.5202 28.08 50.8202C30.66 52.0802 34.14 53.5202 38.04 53.7602C38.28 53.7602 38.52 53.7602 38.76 53.7602C41.34 53.7602 43.56 52.8002 45.24 50.9402L45.3 50.8802C45.9 50.1602 46.56 49.5002 47.28 48.8402C47.82 48.4202 48.3 47.9402 48.78 47.4002ZM45.24 46.7404C44.52 47.4604 43.74 48.1804 43.08 49.0204C41.94 50.2804 40.56 50.8204 38.82 50.8204C38.64 50.8204 38.46 50.8204 38.28 50.8204C34.92 50.5204 31.8 49.2603 29.4 48.1203C22.98 45.0003 17.4 40.6204 12.72 35.0404C8.88 30.4204 6.3 26.1004 4.56 21.4804C3.48 18.6604 3.12 16.4404 3.3 14.4004C3.42 13.0804 3.96 12.0004 4.86 11.0404L8.7 7.20035C9.24 6.66035 9.84 6.36035 10.44 6.36035C11.16 6.36035 11.76 6.78035 12.18 7.20035C12.9 7.86035 13.5 8.52035 14.22 9.24035C14.58 9.60035 14.94 9.96035 15.3 10.3204L18.36 13.3804C18.96 13.9804 19.26 14.5804 19.26 15.1804C19.26 15.7804 18.96 16.3804 18.36 16.9804C18.06 17.2804 17.7 17.6404 17.4 17.9404C16.44 18.9004 15.54 19.8004 14.58 20.7004L14.52 20.7604C13.56 21.7204 13.74 22.6804 13.92 23.2804C13.92 23.3404 13.92 23.3404 13.98 23.4004C14.76 25.3204 15.9 27.1804 17.64 29.3404C20.76 33.1804 24.06 36.1804 27.66 38.4604C28.14 38.7604 28.62 39.0004 29.04 39.2404C29.46 39.4204 29.82 39.6604 30.18 39.8404C30.24 39.8404 30.24 39.9004 30.3 39.9004C30.66 40.0804 31.02 40.2004 31.38 40.2004C32.28 40.2004 32.88 39.6004 33.06 39.4204L36.96 35.5204C37.32 35.1604 37.98 34.6804 38.7 34.6804C39.42 34.6804 39.96 35.1604 40.38 35.5204L46.62 41.7604C48.06 43.2004 47.4 44.5204 46.56 45.3604C46.2 45.8404 45.72 46.2604 45.24 46.7404ZM27.96 11.1604C28.08 10.3204 28.86 9.7804 29.7 9.9604C33.3 10.5604 36.54 12.2404 39.12 14.8804C41.7 17.5204 43.38 20.7604 44.04 24.3004C44.16 25.1404 43.62 25.9204 42.84 26.0404C42.78 26.0404 42.66 26.0404 42.6 26.0404C41.88 26.0404 41.22 25.5004 41.1 24.7804C40.62 21.8404 39.18 19.0804 37.02 16.9804C34.86 14.8204 32.16 13.4404 29.22 12.9004C28.32 12.7804 27.78 12.0004 27.96 11.1604ZM50.76 24.3602C49.86 19.0802 47.34 14.2802 43.56 10.4402C39.72 6.60024 34.92 4.14024 29.64 3.24024C28.8 3.12024 28.26 2.34024 28.44 1.50024C28.62 0.660244 29.34 0.120244 30.18 0.300244C36 1.26024 41.4 4.02024 45.66 8.28024C49.92 12.5402 52.74 17.9402 53.7 23.8202C53.82 24.6602 53.28 25.4402 52.5 25.5602C52.44 25.5602 52.32 25.5602 52.26 25.5602C51.54 25.6202 50.88 25.0802 50.76 24.3602Z" fill="#777777"/>
</svg>
