<svg width="40" height="54" viewBox="0 0 40 54" fill="none" xmlns="http://www.w3.org/2000/svg">
<path fill-rule="evenodd" clip-rule="evenodd" d="M20 0C8.97167 0 0 8.97167 0 20C0 40.6767 18.325 52.5767 19.105 53.0733C19.65 53.42 20.35 53.42 20.895 53.0733C21.675 52.5767 40 40.6767 40 20C40 8.97167 31.0283 0 20 0ZM20 49.6352C16.4183 47.0152 3.33333 36.3252 3.33333 20.0002C3.33333 10.8102 10.81 3.3335 20 3.3335C29.19 3.3335 36.6667 10.8102 36.6667 20.0002C36.6667 36.3252 23.58 47.0152 20 49.6352ZM20 11.6665C15.405 11.6665 11.6667 15.4048 11.6667 19.9998C11.6667 24.5948 15.405 28.3332 20 28.3332C24.595 28.3332 28.3333 24.5948 28.3333 19.9998C28.3333 15.4048 24.595 11.6665 20 11.6665ZM20 25C17.2433 25 15 22.7567 15 20C15 17.2433 17.2433 15 20 15C22.7567 15 25 17.2433 25 20C25 22.7567 22.7567 25 20 25Z" fill="#777777"/>
</svg>
