<?xml version="1.0" encoding="utf-8"?>
<!-- Generator: Adobe Illustrator 24.0.2, SVG Export Plug-In . SVG Version: 6.00 Build 0)  -->
<svg version="1.1" xmlns="http://www.w3.org/2000/svg" xmlns:xlink="http://www.w3.org/1999/xlink" x="0px" y="0px"
	 viewBox="0 0 95 82.8" style="fill: #fff; enable-background:new 0 0 95 82.8;" xml:space="preserve">
<g id="Layer_2">
</g>
<g id="Layer_1">
	<g>
		<path d="M91.3,13.1c-2.6-0.6-5.2,1-5.8,3.6l-8.4,34.9h-42l-12-47.9C22.6,1.5,20.6,0,18.4,0H4.8C2.1,0,0,2.2,0,4.8s2.2,4.8,4.8,4.8
			h9.7l12,47.9c0.5,2.2,2.5,3.7,4.7,3.7h49.6c2.2,0,4.2-1.5,4.7-3.7l9.3-38.6C95.5,16.3,93.9,13.7,91.3,13.1z"/>
		<circle cx="37.9" cy="74.2" r="8.6"/>
		<circle cx="71.7" cy="74.2" r="8.6"/>
	</g>
</g>
</svg>
